<?xml version="1.0" encoding="UTF-8" standalone="no"?>
<!DOCTYPE svg PUBLIC "-//W3C//DTD SVG 1.1//EN" "http://www.w3.org/Graphics/SVG/1.1/DTD/svg11.dtd">
<svg xmlns="http://www.w3.org/2000/svg" version="1.1" viewBox="0 0 125 125">
  <g stroke-width="2" fill="none" stroke-linecap="butt">
    <path d="M 94.37 91.88 Q 96.44 93.79 98.98 93.67 A 1.08 1.0699 -5.6949 0 1 100.09 94.57 L 100.75 98.58 A 1.229 1.2091 -32.3328 0 1 100.54 99.48 C 97.27 104.14 91.69 104.26 87.02 101.35 A 0.5056 0.4966 -65.8807 0 0 86.28 101.64 L 85.65 103.83" stroke="#FE8C49" vector-effect="non-scaling-stroke"/>
    <path d="M 70.44 105.96 Q 66.69 100.34 64.41 94.53 Q 63.88 93.17 63.19 92.67 A 1.583 1.5763 29.3793 0 0 60.81 93.33 C 58.64 98.47 58.1 102.09 52.18 105.66 A 2.0314 2.019 -60.4295 0 1 51.07 105.97 Q 47.92 105.91 45.85 103.29 A 1.2215 1.2161 71.6907 0 0 44.94 102.83 Q 44.27 102.82 43.37 103.52 A 0.6122 0.6122 0 0 1 42.49 103.39 Q 41.79 102.38 42.45 101.58 A 0.6933 0.6933 0 0 0 41.49 100.59 Q 34.57 105.99 28.68 100.39 A 1.2749 1.2633 60.6838 0 0 27.56 100.07 Q 26.26 100.32 25.7 99.7 A 1.534 1.4932 -65.7987 0 1 25.31 98.63 Q 25.47 94.4 30.89 92.58" stroke="#FE8C49" vector-effect="non-scaling-stroke"/>
    <path d="M 34.26 59.55 L 34.83 63.48" stroke="#FE8C49" vector-effect="non-scaling-stroke"/>
    <path d="M 34.83 63.48 Q 29.94 64.17 28.68 66.94 Q 27.2 70.19 30.41 73.6 Q 32.9 76.23 36.59 76.04 C 39.1 75.92 40.32 74.75 41.19 72.64 A 1.5331 1.4785 -5.9134 0 1 41.78 71.94 Q 42.88 71.26 43.97 71.06" stroke="#FE8C49" vector-effect="non-scaling-stroke"/>
    <path d="M 43.97 71.06 Q 48.27 71.29 49.91 68.91" stroke="#FE8C49" vector-effect="non-scaling-stroke"/>
    <path d="M 49.91 68.91 Q 54.71 65.71 54.32 60 Q 54.09 56.56 51.25 54.09" stroke="#FE8C49" vector-effect="non-scaling-stroke"/>
    <path d="M 51.25 54.09 Q 51.66 53.54 49.88 52.11" stroke="#FE8C49" vector-effect="non-scaling-stroke"/>
    <path d="M 49.88 52.11 Q 49.1 50.04 46.18 49.79 Q 35.35 48.86 34.26 59.55" stroke="#FE8C49" vector-effect="non-scaling-stroke"/>
    <path d="M 49.88 52.11 C 42.96 47.8 36.07 52.27 34.26 59.55" stroke="#4D1E18" vector-effect="non-scaling-stroke"/>
    <path d="M 51.25 54.09 Q 47.53 51.25 43.49 52.9 C 33.37 57.02 38.45 73.87 49.91 68.91" stroke="#FEFEFB" vector-effect="non-scaling-stroke"/>
    <path d="M 43.97 71.06 Q 39.86 70.29 38.6 69.4 Q 35.63 67.32 34.83 63.48" stroke="#FEFEFB" vector-effect="non-scaling-stroke"/>
    <path d="M 79.2 50.52 Q 75.12 51.56 73.88 53.9" stroke="#FE8C49" vector-effect="non-scaling-stroke"/>
    <path d="M 73.88 53.9 C 69.18 58.29 69.82 64.92 74.82 68.82" stroke="#FE8C49" vector-effect="non-scaling-stroke"/>
    <path d="M 74.82 68.82 Q 77.86 72.34 83.9 70.77" stroke="#FE8C49" vector-effect="non-scaling-stroke"/>
    <path d="M 83.9 70.77 C 83.32 79.86 98.48 76.12 96.76 67.68 C 96.09 64.42 93.14 63.64 90.23 64.53" stroke="#FE8C49" vector-effect="non-scaling-stroke"/>
    <path d="M 90.23 64.53 Q 91.76 59.46 89.11 55.07" stroke="#FE8C49" vector-effect="non-scaling-stroke"/>
    <path d="M 89.11 55.07 Q 85.98 48.16 79.2 50.52" stroke="#FE8C49" vector-effect="non-scaling-stroke"/>
    <path d="M 89.11 55.07 Q 85.27 50.17 79.2 50.52" stroke="#F86830" vector-effect="non-scaling-stroke"/>
    <path d="M 62.5527 72.1797 Q 65.4544 72.1931 66.9136 70.072 Q 67.03 69.91 67.05 69.8 Q 67.11 69.51 66.95 69.33 A 0.2908 0.2908 0 0 0 66.5442 69.3064 Q 64.5677 71.0634 62.5579 71.0541 Q 60.5482 71.0447 58.5881 69.2694 A 0.2908 0.2908 0 0 0 58.1821 69.2893 Q 58.0204 69.4678 58.0777 69.7584 Q 58.0967 69.8685 58.2116 70.0316 Q 59.651 72.1662 62.5527 72.1797" stroke="#FE8C49" vector-effect="non-scaling-stroke"/>
    <path d="M 87.31 87.37 Q 86.69 89.67 88.08 92 C 89.96 95.18 94.49 100.05 98.32 98.43 A 0.7383 0.7383 0 0 0 98.23 97.04 Q 91.03 94.97 87.77 87.34 A 0.2439 0.2439 0 0 0 87.31 87.37" stroke="#FE8C49" vector-effect="non-scaling-stroke"/>
    <path d="M 39.527 87.9105 A 0.2142 0.2142 0 0 0 39.1223 87.925 Q 36.9474 94.8819 30.8374 97.3275 A 0.6486 0.6486 0 0 0 30.8816 98.5503 C 34.3722 99.6277 37.9011 94.9709 39.2632 92.0253 Q 40.2722 89.866 39.527 87.9105" stroke="#FE8C49" vector-effect="non-scaling-stroke"/>
    <path d="M 48.51 98.25 Q 49.26 101.25 49.84 96.5" stroke="#FE8C49" vector-effect="non-scaling-stroke"/>
    <path d="M 49.84 96.5 Q 50.86 93.88 49.91 91.71 A 0.6516 0.6516 0 0 0 48.75 91.65 L 45.9 96.59 A 0.5025 0.497 -73.9777 0 0 46.31 97.34 Q 47.59 97.4 48.51 98.25" stroke="#FE8C49" vector-effect="non-scaling-stroke"/>
    <path d="M 49.84 96.5 Q 48.88 97.05 48.51 98.25" stroke="#F86830" vector-effect="non-scaling-stroke"/>
    <path d="M 80.99 100.8 Q 80.97 100.52 80 99.49 A 0.7277 0.7215 -51.8788 0 1 79.9 98.63 L 80.21 98.09 A 1.5871 1.5696 45.3183 0 0 80.21 96.52 L 77.35 91.57 A 0.66 0.66 0 0 0 76.18 91.62 C 75.07 93.96 78.33 99.66 79.65 101.32 A 0.7531 0.7531 0 0 0 80.99 100.8" stroke="#FE8C49" vector-effect="non-scaling-stroke"/>
    <path d="M 43.5584 55.5385 A 1.78 1.48 -49.4 0 0 41.2763 55.9269 A 1.78 1.48 -49.4 0 0 41.2416 58.2415 A 1.78 1.48 -49.4 0 0 43.5237 57.8531 A 1.78 1.48 -49.4 0 0 43.5584 55.5385" stroke="#4D1E18" vector-effect="non-scaling-stroke"/>
    <path d="M 50.4521 57.5196 A 1.01 0.89 -101.3 0 0 49.7773 58.6844 A 1.01 0.89 -101.3 0 0 50.8479 59.5004 A 1.01 0.89 -101.3 0 0 51.5227 58.3356 A 1.01 0.89 -101.3 0 0 50.4521 57.5196" stroke="#4D1E18" vector-effect="non-scaling-stroke"/>
    <path d="M 75.4379 55.9762 A 1.57 1.28 -60.3 0 0 73.5481 56.7058 A 1.57 1.28 -60.3 0 0 73.8821 58.7038 A 1.57 1.28 -60.3 0 0 75.7719 57.9742 A 1.57 1.28 -60.3 0 0 75.4379 55.9762" stroke="#4D1E18" vector-effect="non-scaling-stroke"/>
    <path d="M 83.4955 57.821 A 1.02 0.9 -92.5 0 0 82.6409 58.8793 A 1.02 0.9 -92.5 0 0 83.5845 59.859 A 1.02 0.9 -92.5 0 0 84.4391 58.8007 A 1.02 0.9 -92.5 0 0 83.4955 57.821" stroke="#4D1E18" vector-effect="non-scaling-stroke"/>
  </g>
  <ellipse cx="82" cy="62" rx="9.5" ry="9" fill="#FEFEFB" stroke="none"/>
  <path d="M 94.37 91.88 Q 96.44 93.79 98.98 93.67 A 1.08 1.0699 -5.6949 0 1 100.09 94.57 L 100.75 98.58 A 1.229 1.2091 -32.3328 0 1 100.54 99.48 C 97.27 104.14 91.69 104.26 87.02 101.35 A 0.5056 0.4966 -65.8807 0 0 86.28 101.64 L 85.65 103.83 Q 83.99 107.94 79.94 108.66 Q 74.47 109.63 70.44 105.96 Q 66.69 100.34 64.41 94.53 Q 63.88 93.17 63.19 92.67 A 1.583 1.5763 29.3793 0 0 60.81 93.33 C 58.64 98.47 58.1 102.09 52.18 105.66 A 2.0314 2.019 -60.4295 0 1 51.07 105.97 Q 47.92 105.91 45.85 103.29 A 1.2215 1.2161 71.6907 0 0 44.94 102.83 Q 44.27 102.82 43.37 103.52 A 0.6122 0.6122 0 0 1 42.49 103.39 Q 41.79 102.38 42.45 101.58 A 0.6933 0.6933 0 0 0 41.49 100.59 Q 34.57 105.99 28.68 100.39 A 1.2749 1.2633 60.6838 0 0 27.56 100.07 Q 26.26 100.32 25.7 99.7 A 1.534 1.4932 -65.7987 0 1 25.31 98.63 Q 25.47 94.4 30.89 92.58 Q 34.71 88.85 35.07 85.73 Q 35.27 84 33.96 82.79 Q 20.01 69.94 23.25 53.38 Q 25.7 40.84 35.6 31.91 Q 44.72 23.68 58.37 21.77 A 0.3928 0.3928 0 0 0 58.66 21.19 Q 55.74 16.14 57.6 12.47 Q 60.16 7.41 65.53 8.26 Q 66.4 8.39 66.72 8.86 A 1.7173 1.2675 -22.6866 0 1 65.47 10.95 C 64.13 11.33 62.59 11.01 61.31 11.74 C 57.62 13.83 59.32 18.56 61.63 21.23 A 1.1534 1.1262 -19.1169 0 0 62.48 21.63 C 82.55 21.94 100.43 36.59 102.39 56.7 Q 103.86 71.72 90.92 83.07 Q 89.23 84.55 90.37 87.31 Q 91.68 90.47 94.37 91.88 Z M 34.26 59.55 L 34.83 63.48 Q 29.94 64.17 28.68 66.94 Q 27.2 70.19 30.41 73.6 Q 32.9 76.23 36.59 76.04 C 39.1 75.92 40.32 74.75 41.19 72.64 A 1.5331 1.4785 -5.9134 0 1 41.78 71.94 Q 42.88 71.26 43.97 71.06 Q 48.27 71.29 49.91 68.91 Q 54.71 65.71 54.32 60 Q 54.09 56.56 51.25 54.09 Q 51.66 53.54 49.88 52.11 Q 49.1 50.04 46.18 49.79 Q 35.35 48.86 34.26 59.55 Z M 79.2 50.52 Q 75.12 51.56 73.88 53.9 C 69.18 58.29 69.82 64.92 74.82 68.82 Q 77.86 72.34 83.9 70.77 C 83.32 79.86 98.48 76.12 96.76 67.68 C 96.09 64.42 93.14 63.64 90.23 64.53 Q 91.76 59.46 89.11 55.07 Q 85.98 48.16 79.2 50.52 Z M 62.5527 72.1797 Q 65.4544 72.1931 66.9136 70.072 Q 67.03 69.91 67.05 69.8 Q 67.11 69.51 66.95 69.33 A 0.2908 0.2908 0 0 0 66.5442 69.3064 Q 64.5677 71.0634 62.5579 71.0541 Q 60.5482 71.0447 58.5881 69.2694 A 0.2908 0.2908 0 0 0 58.1821 69.2893 Q 58.0204 69.4678 58.0777 69.7584 Q 58.0967 69.8685 58.2116 70.0316 Q 59.651 72.1662 62.5527 72.1797 Z M 87.31 87.37 Q 86.69 89.67 88.08 92 C 89.96 95.18 94.49 100.05 98.32 98.43 A 0.7383 0.7383 0 0 0 98.23 97.04 Q 91.03 94.97 87.77 87.34 A 0.2439 0.2439 0 0 0 87.31 87.37 Z M 39.527 87.9105 A 0.2142 0.2142 0 0 0 39.1223 87.925 Q 36.9474 94.8819 30.8374 97.3275 A 0.6486 0.6486 0 0 0 30.8816 98.5503 C 34.3722 99.6277 37.9011 94.9709 39.2632 92.0253 Q 40.2722 89.866 39.527 87.9105 Z M 48.51 98.25 Q 49.26 101.25 49.84 96.5 Q 50.86 93.88 49.91 91.71 A 0.6516 0.6516 0 0 0 48.75 91.65 L 45.9 96.59 A 0.5025 0.497 -73.9777 0 0 46.31 97.34 Q 47.59 97.4 48.51 98.25 Z M 80.99 100.8 Q 80.97 100.52 80 99.49 A 0.7277 0.7215 -51.8788 0 1 79.9 98.63 L 80.21 98.09 A 1.5871 1.5696 45.3183 0 0 80.21 96.52 L 77.35 91.57 A 0.66 0.66 0 0 0 76.18 91.62 C 75.07 93.96 78.33 99.66 79.65 101.32 A 0.7531 0.7531 0 0 0 80.99 100.8 Z" fill="#FE8C49" fill-rule="evenodd" stroke="none"/>
  <path d="M 49.88 52.11 C 42.96 47.8 36.07 52.27 34.26 59.55 Q 35.35 48.86 46.18 49.79 Q 49.1 50.04 49.88 52.11 Z" fill="#4D1E18" fill-rule="evenodd" stroke="none"/>
  <path d="M 89.11 55.07 Q 85.27 50.17 79.2 50.52 Q 85.98 48.16 89.11 55.07 Z" fill="#F86830" fill-rule="evenodd" stroke="none"/>
  <path d="M 49.88 52.11 Q 51.66 53.54 51.25 54.09 Q 47.53 51.25 43.49 52.9 C 33.37 57.02 38.45 73.87 49.91 68.91 Q 48.27 71.29 43.97 71.06 Q 39.86 70.29 38.6 69.4 Q 35.63 67.32 34.83 63.48 L 34.26 59.55 C 36.07 52.27 42.96 47.8 49.88 52.11 Z" fill="#FEFEFB" fill-rule="evenodd" stroke="none"/>
  <path d="M 51.25 54.09 Q 54.09 56.56 54.32 60 Q 54.71 65.71 49.91 68.91 C 38.45 73.87 33.37 57.02 43.49 52.9 Q 47.53 51.25 51.25 54.09 Z M 43.5584 55.5385 A 1.78 1.48 -49.4 0 0 41.2763 55.9269 A 1.78 1.48 -49.4 0 0 41.2416 58.2415 A 1.78 1.48 -49.4 0 0 43.5237 57.8531 A 1.78 1.48 -49.4 0 0 43.5584 55.5385 Z M 50.4521 57.5196 A 1.01 0.89 -101.3 0 0 49.7773 58.6844 A 1.01 0.89 -101.3 0 0 50.8479 59.5004 A 1.01 0.89 -101.3 0 0 51.5227 58.3356 A 1.01 0.89 -101.3 0 0 50.4521 57.5196 Z" fill="#4D1E18" fill-rule="evenodd" stroke="none"/>
  <path d="M 74.82 68.82 C 69.82 64.92 69.18 58.29 73.88 53.9 C 83.85 47.79 91.96 61.57 83.64 68.37 Q 80.09 71.28 74.82 68.82 Z M 75.4379 55.9762 A 1.57 1.28 -60.3 0 0 73.5481 56.7058 A 1.57 1.28 -60.3 0 0 73.8821 58.7038 A 1.57 1.28 -60.3 0 0 75.7719 57.9742 A 1.57 1.28 -60.3 0 0 75.4379 55.9762 Z M 83.4955 57.821 A 1.02 0.9 -92.5 0 0 82.6409 58.8793 A 1.02 0.9 -92.5 0 0 83.5845 59.859 A 1.02 0.9 -92.5 0 0 84.4391 58.8007 A 1.02 0.9 -92.5 0 0 83.4955 57.821 Z" fill="#4D1E18" fill-rule="evenodd" stroke="none"/>
  <path d="M 43.5584 55.5385 A 1.78 1.48 -49.4 0 1 43.5237 57.8531 A 1.78 1.48 -49.4 0 1 41.2416 58.2415 A 1.78 1.48 -49.4 0 1 41.2763 55.9269 A 1.78 1.48 -49.4 0 1 43.5584 55.5385 Z" fill="#FEFEFB" fill-rule="evenodd" stroke="none"/>
  <path d="M 75.4379 55.9762 A 1.57 1.28 -60.3 0 1 75.7719 57.9742 A 1.57 1.28 -60.3 0 1 73.8821 58.7038 A 1.57 1.28 -60.3 0 1 73.5481 56.7058 A 1.57 1.28 -60.3 0 1 75.4379 55.9762 Z" fill="#FEFEFB" fill-rule="evenodd" stroke="none"/>
  <path d="M 50.4521 57.5196 A 1.01 0.89 -101.3 0 1 51.5227 58.3356 A 1.01 0.89 -101.3 0 1 50.8479 59.5004 A 1.01 0.89 -101.3 0 1 49.7773 58.6844 A 1.01 0.89 -101.3 0 1 50.4521 57.5196 Z" fill="#FEFEFB" fill-rule="evenodd" stroke="none"/>
  <path d="M 83.4955 57.821 A 1.02 0.9 -92.5 0 1 84.4391 58.8007 A 1.02 0.9 -92.5 0 1 83.5845 59.859 A 1.02 0.9 -92.5 0 1 82.6409 58.8793 A 1.02 0.9 -92.5 0 1 83.4955 57.821 Z" fill="#FEFEFB" fill-rule="evenodd" stroke="none"/>
  <path d="M 43.97 71.06 Q 42.88 71.26 41.78 71.94 A 1.5331 1.4785 -5.9134 0 0 41.19 72.64 C 40.32 74.75 39.1 75.92 36.59 76.04 Q 32.9 76.23 30.41 73.6 Q 27.2 70.19 28.68 66.94 Q 29.94 64.17 34.83 63.48 Q 35.63 67.32 38.6 69.4 Q 39.86 70.29 43.97 71.06 Z" fill="#FEAE9B" fill-rule="evenodd" stroke="none"/>
  <path d="M 83.9 70.77 Q 88.26 69.13 90.23 64.53 C 93.14 63.64 96.09 64.42 96.76 67.68 C 98.48 76.12 83.32 79.86 83.9 70.77 Z" fill="#FEAE9B" fill-rule="evenodd" stroke="none"/>
  <path d="M 62.5579 71.0541 Q 64.5677 71.0634 66.5442 69.3064 A 0.2908 0.2908 0 0 1 66.95 69.33 Q 67.11 69.51 67.05 69.8 Q 67.03 69.91 66.9136 70.072 Q 65.4544 72.1931 62.5527 72.1797 Q 59.651 72.1662 58.2116 70.0316 Q 58.0967 69.8685 58.0777 69.7584 Q 58.0204 69.4678 58.1821 69.2893 A 0.2908 0.2908 0 0 1 58.5881 69.2694 Q 60.5482 71.0447 62.5579 71.0541 Z" fill="#4D1E18" fill-rule="evenodd" stroke="none"/>
  <path d="M 30.89 92.58 Q 25.47 94.4 25.31 98.63 A 1.534 1.4932 -65.7987 0 0 25.7 99.7 Q 26.26 100.32 27.56 100.07 A 1.2749 1.2633 60.6838 0 1 28.68 100.39 Q 34.57 105.99 41.49 100.59 A 0.6933 0.6933 0 0 1 42.45 101.58 Q 41.79 102.38 42.49 103.39 A 0.6122 0.6122 0 0 0 43.37 103.52 Q 44.27 102.82 44.94 102.83 A 1.2215 1.2161 71.6907 0 1 45.85 103.29 Q 47.92 105.91 51.07 105.97 A 2.0314 2.019 -60.4295 0 0 52.18 105.66 C 58.1 102.09 58.64 98.47 60.81 93.33 A 1.583 1.5763 29.3793 0 1 63.19 92.67 Q 63.88 93.17 64.41 94.53 Q 66.69 100.34 70.44 105.96 Q 65.71 102.19 63.8 96.65 Q 63.56 95.96 63.2 95.75 A 1.2835 1.2521 -67.2623 0 0 61.36 96.53 C 59.67 102.41 54.71 110.18 47.43 108.81 Q 43.88 108.14 42.39 104.69 A 0.5225 0.5225 0 0 0 41.68 104.42 C 36.39 106.9 30.86 107.34 26.75 103.08 A 2.0512 2.0313 -21.1337 0 0 25.33 102.46 C 21.59 102.41 17.85 101.57 15.72 98.42 C 13.84 95.66 14.44 91.79 17.7 90.45 A 2.3247 2.1909 -30.244 0 1 20.33 91.06 Q 21.58 92.59 19.86 93.58 A 0.8597 0.8597 0 0 0 20.04 95.15 Q 22.99 96.02 25.02 95.1 A 0.5556 0.5556 0 0 0 25.28 94.32 Q 22.62 89.63 26.55 86.09 Q 28.29 84.52 30.33 85.47 A 1.728 1.6588 42.1807 0 1 30.54 88.48 Q 29.88 88.85 29.44 89.38 A 0.7192 0.7112 -41.9536 0 0 29.39 90.23 L 30.89 92.58 Z" fill="#F86830" fill-rule="evenodd" stroke="none"/>
  <path d="M 85.65 103.83 L 86.28 101.64 A 0.5056 0.4966 -65.8807 0 1 87.02 101.35 C 91.69 104.26 97.27 104.14 100.54 99.48 A 1.229 1.2091 -32.3328 0 0 100.75 98.58 L 100.09 94.57 A 1.08 1.0699 -5.6949 0 0 98.98 93.67 Q 96.44 93.79 94.37 91.88 Q 96.26 90.5 93.9 88.13 A 1.5996 1.5996 0 0 1 94.31 85.58 L 94.37 85.55 A 3.0422 3.0268 53.0778 0 1 97.83 86.05 Q 100.89 88.92 100 92.5 A 0.5598 0.5598 0 0 0 100.44 93.19 Q 102.6 93.57 103.56 95.49 A 0.381 0.381 0 0 0 104.09 95.65 L 105.33 94.93 A 0.5049 0.4655 81.7664 0 0 105.57 94.58 Q 105.65 93.99 105.06 93.74 A 1.7179 1.7055 -40.2688 0 1 105.34 90.5 Q 108.4 89.76 109.77 92.96 C 111.85 97.81 107.68 101.17 103.33 102.15 A 2.0885 2.0112 16.6043 0 0 102.42 102.62 Q 94.98 109.17 85.65 103.83 Z" fill="#F86830" fill-rule="evenodd" stroke="none"/>
  <path d="M 87.31 87.37 A 0.2439 0.2439 0 0 1 87.77 87.34 Q 91.03 94.97 98.23 97.04 A 0.7383 0.7383 0 0 1 98.32 98.43 C 94.49 100.05 89.96 95.18 88.08 92 Q 86.69 89.67 87.31 87.37 Z" fill="#F86830" fill-rule="evenodd" stroke="none"/>
  <path d="M 39.527 87.9105 Q 40.2722 89.866 39.2632 92.0253 C 37.9011 94.9709 34.3722 99.6277 30.8816 98.5503 A 0.6486 0.6486 0 0 1 30.8374 97.3275 Q 36.9474 94.8819 39.1223 87.925 A 0.2142 0.2142 0 0 1 39.527 87.9105 Z" fill="#F86830" fill-rule="evenodd" stroke="none"/>
  <path d="M 49.84 96.5 Q 48.88 97.05 48.51 98.25 Q 47.59 97.4 46.31 97.34 A 0.5025 0.497 -73.9777 0 1 45.9 96.59 L 48.75 91.65 A 0.6516 0.6516 0 0 1 49.91 91.71 Q 50.86 93.88 49.84 96.5 Z" fill="#F86830" fill-rule="evenodd" stroke="none"/>
  <path d="M 80.99 100.8 A 0.7531 0.7531 0 0 1 79.65 101.32 C 78.33 99.66 75.07 93.96 76.18 91.62 A 0.66 0.66 0 0 1 77.35 91.57 L 80.21 96.52 A 1.5871 1.5696 45.3183 0 1 80.21 98.09 L 79.9 98.63 A 0.7277 0.7215 -51.8788 0 0 80 99.49 Q 80.97 100.52 80.99 100.8 Z" fill="#F86830" fill-rule="evenodd" stroke="none"/>
</svg>